<?xml version="1.0" encoding="UTF-8" standalone="no"?>
<svg
   id="icon"
   width="22"
   height="22"
   viewBox="0 0 22 22"
   version="1.1"
   sodipodi:docname="green-check-warning.svg"
   inkscape:version="1.1.2 (b8e25be833, 2022-02-05)"
   xmlns:inkscape="http://www.inkscape.org/namespaces/inkscape"
   xmlns:sodipodi="http://sodipodi.sourceforge.net/DTD/sodipodi-0.dtd"
   xmlns="http://www.w3.org/2000/svg"
   xmlns:svg="http://www.w3.org/2000/svg">
  <sodipodi:namedview
     id="namedview855"
     pagecolor="#ffffff"
     bordercolor="#666666"
     borderopacity="1.0"
     inkscape:pageshadow="2"
     inkscape:pageopacity="0.0"
     inkscape:pagecheckerboard="0"
     showgrid="false"
     showborder="false"
     inkscape:zoom="25"
     inkscape:cx="16.92"
     inkscape:cy="8.96"
     inkscape:window-width="1920"
     inkscape:window-height="1009"
     inkscape:window-x="-8"
     inkscape:window-y="-8"
     inkscape:window-maximized="1"
     inkscape:current-layer="icon" />
  <defs
     id="defs846">
    <style
       id="style844">
      .cls-1 {
        fill: none;
      }
    </style>
  </defs>
  <path
     d="m 9.625,1.375 a 8.25,8.25 0 1 0 2.33255,16.160307 l 2.698161,-5.396325 A 2.0519125,2.0519125 0 0 1 16.5,11 h 1.25125 A 8.205175,8.205175 0 0 0 9.625,1.375 Z M 8.25,12.781175 5.5,10.031175 6.593675,8.9375 8.25,10.593825 11.968825,6.875 13.0625,7.968675 Z"
     id="path848"
     style="fill:#24a148;fill-opacity:1;stroke-width:0.687501" />
  <path
     d="M 18.82375,19.25 H 14.174736 L 16.5,14.599614 Z M 16.5,12.375 a 0.6875,0.6875 0 0 0 -0.615107,0.379982 l -3.4375,6.875 A 0.68784375,0.68784375 0 0 0 13.0625,20.625 h 6.875 a 0.6875,0.6875 0 0 0 0.633461,-0.955075 L 17.115039,12.754982 A 0.6875,0.6875 0 0 0 16.5,12.375 Z"
     id="path850"
     style="fill:#f1c21b;fill-opacity:1;stroke-width:0.687501" />
  <polygon
     id="inner-path"
     class="cls-1"
     points="17.409,10 19,11.591 12,18.591 8,14.591 9.591,13 12,15.409 "
     transform="scale(0.6875)" />
  <rect
     id="_Transparent_Rectangle_"
     data-name="&lt;Transparent Rectangle&gt;"
     class="cls-1"
     width="22"
     height="22"
     x="0"
     y="0"
     style="stroke-width:0.687501" />
</svg>
