<?xml version="1.0" encoding="UTF-8" standalone="no"?>
<!-- Generator: Adobe Illustrator 23.0.2, SVG Export Plug-In . SVG Version: 6.00 Build 0)  -->

<svg
   version="1.1"
   id="icon"
   x="0px"
   y="0px"
   width="20"
   height="20"
   viewBox="0 0 20 20"
   xml:space="preserve"
   sodipodi:docname="red-cross.svg"
   inkscape:version="1.1.2 (b8e25be833, 2022-02-05)"
   xmlns:inkscape="http://www.inkscape.org/namespaces/inkscape"
   xmlns:sodipodi="http://sodipodi.sourceforge.net/DTD/sodipodi-0.dtd"
   xmlns="http://www.w3.org/2000/svg"
   xmlns:svg="http://www.w3.org/2000/svg"><defs
   id="defs1010" /><sodipodi:namedview
   id="namedview1008"
   pagecolor="#ffffff"
   bordercolor="#666666"
   borderopacity="1.0"
   inkscape:pageshadow="2"
   inkscape:pageopacity="0.0"
   inkscape:pagecheckerboard="0"
   showgrid="false"
   showborder="false"
   inkscape:zoom="6.4296875"
   inkscape:cx="15.08627"
   inkscape:cy="27.684083"
   inkscape:window-width="1920"
   inkscape:window-height="1009"
   inkscape:window-x="-8"
   inkscape:window-y="-8"
   inkscape:window-maximized="1"
   inkscape:current-layer="icon" />
<style
   type="text/css"
   id="style1001">
	.st0{fill:none;}
	.st1{opacity:0;fill-opacity:0;}
</style>
<rect
   id="_Transparent_Rectangle_"
   class="st0"
   width="20"
   height="20"
   x="0"
   y="0"
   style="stroke-width:0.625" />
<path
   d="m 10,1.25 c -4.8125,0 -8.75,3.9375 -8.75,8.75 0,4.8125 3.9375,8.75 8.75,8.75 4.8125,0 8.75,-3.9375 8.75,-8.75 C 18.75,5.1875 14.8125,1.25 10,1.25 Z M 13.375,14.375 10,11 l -3.375,3.375 -1,-1 L 9,10 5.625,6.625 l 1,-1 L 10,9 l 3.375,-3.375 1,1 L 11,10 l 3.375,3.375 z"
   id="path1004"
   style="stroke-width:0.625;fill:#da1e28;fill-opacity:1" />
<path
   id="inner-path"
   class="st1"
   d="M 13.375,14.375 10,11 l -3.375,3.375 -1,-1 L 9,10 5.625,6.625 l 1,-1 L 10,9 l 3.375,-3.375 1,1 L 11,10 l 3.375,3.375 z"
   style="stroke-width:0.625" />
</svg>
